<svg width="24" height="24" viewBox="0 0 24 24" fill="none" xmlns="http://www.w3.org/2000/svg">
<g id="Logo Google">
<path id="Vector" fill-rule="evenodd" clip-rule="evenodd" d="M23.52 12.2727C23.52 11.4218 23.4436 10.6036 23.3018 9.81819H12V14.46H18.4582C18.18 15.96 17.3345 17.2309 16.0636 18.0818V21.0927H19.9418C22.2109 19.0036 23.52 15.9273 23.52 12.2727Z" fill="#4285F4"/>
<path id="Vector_2" fill-rule="evenodd" clip-rule="evenodd" d="M11.9999 23.9998C15.2399 23.9998 17.9563 22.9253 19.9417 21.0925L16.0635 18.0816C14.989 18.8016 13.6145 19.2271 11.9999 19.2271C8.87446 19.2271 6.229 17.1162 5.28537 14.2798H1.27628V17.3889C3.25082 21.3107 7.309 23.9998 11.9999 23.9998Z" fill="#34A853"/>
<path id="Vector_3" fill-rule="evenodd" clip-rule="evenodd" d="M5.28545 14.2801C5.04545 13.5601 4.90909 12.791 4.90909 12.0001C4.90909 11.2092 5.04545 10.4401 5.28545 9.72008V6.61099H1.27636C0.463636 8.23099 0 10.0637 0 12.0001C0 13.9364 0.463636 15.7692 1.27636 17.3892L5.28545 14.2801Z" fill="#FBBC05"/>
<path id="Vector_4" fill-rule="evenodd" clip-rule="evenodd" d="M11.9999 4.77273C13.7617 4.77273 15.3435 5.37818 16.5872 6.56727L20.029 3.12545C17.9508 1.18909 15.2345 0 11.9999 0C7.309 0 3.25082 2.68909 1.27628 6.61091L5.28537 9.72C6.229 6.88364 8.87446 4.77273 11.9999 4.77273Z" fill="#EA4335"/>
</g>
</svg>
